{"accessors" : [{"bufferView" : 0, "byteOffset" : 0, "componentType" : 5123, "count" : 6444, "type" : "SCALAR", "max" : [5695], "min" : [0]}, {"bufferView" : 1, "byteOffset" : 0, "componentType" : 5126, "count" : 5696, "type" : "VEC3", "max" : [0, 2, 0], "min" : [-150, -5, -150], "name" : "POSITION"}, {"bufferView" : 1, "byteOffset" : 12, "componentType" : 5126, "count" : 5696, "type" : "VEC2", "max" : [1, -0], "min" : [0, -0.7223179936408997], "name" : "TEXCOORD_0"}, {"bufferView" : 1, "byteOffset" : 20, "componentType" : 5126, "count" : 5696, "type" : "VEC3", "max" : [1.0000044107437134, 1.0000044107437134, 1.0000044107437134], "min" : [-1.0000044107437134, -1.0000044107437134, -1.0000044107437134], "name" : "NORMAL"}, {"bufferView" : 0, "byteOffset" : 12888, "componentType" : 5123, "count" : 5172, "type" : "SCALAR", "max" : [4457], "min" : [0]}, {"bufferView" : 2, "byteOffset" : 0, "componentType" : 5126, "count" : 4458, "type" : "VEC3", "max" : [-6.0448899269104, 2, -15.336700439453125], "min" : [-143.87399291992188, 0, -124.58899688720703], "name" : "POSITION"}, {"bufferView" : 2, "byteOffset" : 12, "componentType" : 5126, "count" : 4458, "type" : "VEC2", "max" : [0.604017972946167, -0.3461099863052368], "min" : [0.2067909985780716, -1], "name" : "TEXCOORD_0"}, {"bufferView" : 2, "byteOffset" : 20, "componentType" : 5126, "count" : 4458, "type" : "VEC3", "max" : [0.9999995827674866, 1.0000044107437134, 0.9999685883522034], "min" : [-0.9999985098838806, -0, -1.0000044107437134], "name" : "NORMAL"}], "asset" : {"generator" : "Aspose.3D 22.1", "version" : "2.0"}, "buffers" : [{"uri" : "data:application/octet-stream;base64,", "byteLength" : 394956}], "bufferViews" : [{"buffer" : 0, "byteOffset" : 0, "byteLength" : 23232, "target" : 34963}, {"buffer" : 0, "byteOffset" : 23236, "byteLength" : 206208, "byteStride" : 32, "target" : 34962}, {"buffer" : 0, "byteOffset" : 229448, "byteLength" : 165504, "byteStride" : 32, "target" : 34962}], "meshes" : [{"primitives" : [{"attributes" : {"POSITION" : 1, "TEXCOORD_0" : 2, "NORMAL" : 3}, "indices" : 0, "mode" : 4}], "name" : ""}, {"primitives" : [{"attributes" : {"POSITION" : 5, "TEXCOORD_0" : 6, "NORMAL" : 7}, "indices" : 4, "mode" : 4}], "name" : ""}], "nodes" : [{"mesh" : 0, "name" : "Object__0"}, {"mesh" : 1, "name" : "Object__1"}], "scene" : 0, "scenes" : [{"nodes" : [0, 1]}]}